<?xml version="1.0" standalone="no"?>
<!DOCTYPE svg PUBLIC "-//W3C//DTD SVG 20010904//EN"
 "http://www.w3.org/TR/2001/REC-SVG-20010904/DTD/svg10.dtd">
<svg version="1.0" xmlns="http://www.w3.org/2000/svg"
 width="512.000000pt" height="512.000000pt" viewBox="0 0 512.000000 512.000000"
 preserveAspectRatio="xMidYMid meet">
<metadata>
Created by potrace 1.14, written by Peter Selinger 2001-2017
</metadata>
<g transform="translate(0.000000,512.000000) scale(0.100000,-0.100000)"
fill="#000000" stroke="none">
<path d="M2083 3996 l-27 -24 -1 -153 c-1 -85 3 -166 8 -182 18 -53 91 -65
126 -21 19 24 21 40 21 180 0 164 -7 195 -47 213 -35 16 -49 14 -80 -13z"/>
<path d="M1507 3760 c-20 -16 -27 -30 -27 -57 0 -32 12 -47 119 -154 97 -97
124 -119 147 -119 49 1 91 50 80 93 -3 12 -56 73 -118 134 -126 125 -154 140
-201 103z"/>
<path d="M2665 3761 c-47 -30 -225 -217 -226 -237 -2 -37 2 -49 27 -71 47 -42
67 -33 192 90 62 61 118 122 123 134 10 28 -6 79 -29 89 -35 15 -58 13 -87 -5z"/>
<path d="M2057 3449 c-96 -22 -174 -86 -219 -177 -29 -59 -33 -76 -33 -147 0
-65 5 -90 26 -135 120 -254 477 -254 598 0 22 46 26 69 26 140 -1 102 -23 159
-91 227 -79 79 -204 116 -307 92z"/>
<path d="M1301 3199 c-62 -13 -81 -80 -36 -124 24 -25 27 -25 188 -25 160 0
165 1 191 25 32 30 33 65 2 101 l-23 28 -145 0 c-80 1 -160 -2 -177 -5z"/>
<path d="M2636 3190 c-54 -27 -53 -104 1 -129 25 -11 300 -15 340 -5 31 8 56
65 44 98 -17 43 -44 49 -206 50 -115 1 -156 -2 -179 -14z"/>
<path d="M1721 2815 c-37 -19 -231 -218 -238 -242 -15 -60 40 -113 95 -92 28
11 223 202 241 236 31 59 -40 130 -98 98z"/>
<path d="M2480 2815 c-30 -16 -48 -51 -42 -81 2 -13 39 -58 82 -101 154 -154
157 -156 191 -155 40 1 68 28 74 71 4 31 -4 41 -114 151 -121 120 -150 137
-191 115z"/>
<path d="M2105 2660 c-45 -18 -49 -34 -50 -194 -2 -159 5 -200 35 -216 31 -17
76 -11 96 11 17 18 19 40 22 176 4 169 -3 203 -44 222 -29 13 -32 13 -59 1z"/>
<path d="M3355 2392 c-143 -23 -255 -82 -435 -228 -127 -103 -252 -195 -385
-284 -155 -104 -346 -220 -363 -220 -13 0 -138 80 -247 159 -65 46 -55 39
-165 127 -134 108 -215 159 -306 191 -67 23 -95 27 -189 27 -124 1 -182 -11
-302 -62 -278 -115 -585 -388 -892 -791 -79 -104 -90 -146 -50 -189 l20 -22
2535 1 c1733 0 2534 4 2534 11 0 25 -256 364 -399 528 -67 77 -277 290 -343
348 -367 319 -706 455 -1013 404z"/>
</g>
</svg>
